<?xml version="1.0" encoding="UTF-8"?>
<svg width="394px" height="939px" viewBox="0 0 394 939" version="1.1" xmlns="http://www.w3.org/2000/svg" xmlns:xlink="http://www.w3.org/1999/xlink">
    <title>Artboard</title>
    <defs>
        <linearGradient x1="15.3331208%" y1="2.18479293%" x2="37.1227109%" y2="86.9312831%" id="linearGradient-1">
            <stop stop-color="#3C64CF" offset="0%"></stop>
            <stop stop-color="#4494DC" offset="25.6009615%"></stop>
            <stop stop-color="#B358DE" offset="68.6024913%"></stop>
            <stop stop-color="#802DDF" offset="100%"></stop>
        </linearGradient>
        <linearGradient x1="15.9345458%" y1="2.18479293%" x2="37.3461151%" y2="86.9312831%" id="linearGradient-2">
            <stop stop-color="#3C64CF" offset="0%"></stop>
            <stop stop-color="#4494DC" offset="25.6009615%"></stop>
            <stop stop-color="#B358DE" offset="68.6024913%"></stop>
            <stop stop-color="#802DDF" offset="100%"></stop>
        </linearGradient>
        <linearGradient x1="16.682925%" y1="2.18479293%" x2="37.6241065%" y2="86.9312831%" id="linearGradient-3">
            <stop stop-color="#3C64CF" offset="0%"></stop>
            <stop stop-color="#4494DC" offset="25.6009615%"></stop>
            <stop stop-color="#B358DE" offset="68.6024913%"></stop>
            <stop stop-color="#802DDF" offset="100%"></stop>
        </linearGradient>
        <linearGradient x1="17.4630611%" y1="2.18479293%" x2="37.9138943%" y2="86.9312831%" id="linearGradient-4">
            <stop stop-color="#3C64CF" offset="0%"></stop>
            <stop stop-color="#4494DC" offset="25.6009615%"></stop>
            <stop stop-color="#B358DE" offset="68.6024913%"></stop>
            <stop stop-color="#802DDF" offset="100%"></stop>
        </linearGradient>
        <linearGradient x1="18.2639875%" y1="2.18479293%" x2="38.2114048%" y2="86.9312831%" id="linearGradient-5">
            <stop stop-color="#3C64CF" offset="0%"></stop>
            <stop stop-color="#4494DC" offset="25.6009615%"></stop>
            <stop stop-color="#B358DE" offset="68.6024913%"></stop>
            <stop stop-color="#802DDF" offset="100%"></stop>
        </linearGradient>
        <linearGradient x1="19.1127951%" y1="2.18479293%" x2="38.5267011%" y2="86.9312831%" id="linearGradient-6">
            <stop stop-color="#3C64CF" offset="0%"></stop>
            <stop stop-color="#4494DC" offset="25.6009615%"></stop>
            <stop stop-color="#B358DE" offset="68.6024913%"></stop>
            <stop stop-color="#802DDF" offset="100%"></stop>
        </linearGradient>
        <linearGradient x1="19.9845987%" y1="2.18479293%" x2="38.8505395%" y2="86.9312831%" id="linearGradient-7">
            <stop stop-color="#3C64CF" offset="0%"></stop>
            <stop stop-color="#4494DC" offset="25.6009615%"></stop>
            <stop stop-color="#B358DE" offset="68.6024913%"></stop>
            <stop stop-color="#802DDF" offset="100%"></stop>
        </linearGradient>
        <linearGradient x1="20.889467%" y1="2.18479293%" x2="39.1866601%" y2="86.9312831%" id="linearGradient-8">
            <stop stop-color="#3C64CF" offset="0%"></stop>
            <stop stop-color="#4494DC" offset="25.6009615%"></stop>
            <stop stop-color="#B358DE" offset="68.6024913%"></stop>
            <stop stop-color="#802DDF" offset="100%"></stop>
        </linearGradient>
        <linearGradient x1="21.8417111%" y1="2.18479293%" x2="39.5403788%" y2="86.9312831%" id="linearGradient-9">
            <stop stop-color="#3C64CF" offset="0%"></stop>
            <stop stop-color="#4494DC" offset="25.6009615%"></stop>
            <stop stop-color="#B358DE" offset="68.6024913%"></stop>
            <stop stop-color="#802DDF" offset="100%"></stop>
        </linearGradient>
        <linearGradient x1="22.8197161%" y1="2.18479293%" x2="39.9036666%" y2="86.9312831%" id="linearGradient-10">
            <stop stop-color="#3C64CF" offset="0%"></stop>
            <stop stop-color="#4494DC" offset="25.6009615%"></stop>
            <stop stop-color="#B358DE" offset="68.6024913%"></stop>
            <stop stop-color="#802DDF" offset="100%"></stop>
        </linearGradient>
        <linearGradient x1="23.8143001%" y1="2.18479293%" x2="40.2731127%" y2="86.9312831%" id="linearGradient-11">
            <stop stop-color="#3C64CF" offset="0%"></stop>
            <stop stop-color="#4494DC" offset="25.6009615%"></stop>
            <stop stop-color="#B358DE" offset="68.6024913%"></stop>
            <stop stop-color="#802DDF" offset="100%"></stop>
        </linearGradient>
        <linearGradient x1="24.3562626%" y1="2.18479293%" x2="40.474429%" y2="86.9312831%" id="linearGradient-12">
            <stop stop-color="#3C64CF" offset="0%"></stop>
            <stop stop-color="#4494DC" offset="25.6009615%"></stop>
            <stop stop-color="#B358DE" offset="68.6024913%"></stop>
            <stop stop-color="#802DDF" offset="100%"></stop>
        </linearGradient>
        <linearGradient x1="24.7209029%" y1="2.18479293%" x2="40.6098775%" y2="86.9312831%" id="linearGradient-13">
            <stop stop-color="#3C64CF" offset="0%"></stop>
            <stop stop-color="#4494DC" offset="25.6009615%"></stop>
            <stop stop-color="#B358DE" offset="68.6024913%"></stop>
            <stop stop-color="#802DDF" offset="100%"></stop>
        </linearGradient>
        <linearGradient x1="24.9538322%" y1="2.18479293%" x2="40.696401%" y2="86.9312831%" id="linearGradient-14">
            <stop stop-color="#3C64CF" offset="0%"></stop>
            <stop stop-color="#4494DC" offset="25.6009615%"></stop>
            <stop stop-color="#B358DE" offset="68.6024913%"></stop>
            <stop stop-color="#802DDF" offset="100%"></stop>
        </linearGradient>
        <linearGradient x1="25.1306893%" y1="2.18479293%" x2="40.762096%" y2="86.9312831%" id="linearGradient-15">
            <stop stop-color="#3C64CF" offset="0%"></stop>
            <stop stop-color="#4494DC" offset="25.6009615%"></stop>
            <stop stop-color="#B358DE" offset="68.6024913%"></stop>
            <stop stop-color="#802DDF" offset="100%"></stop>
        </linearGradient>
        <linearGradient x1="25.1838552%" y1="2.18479293%" x2="40.7818449%" y2="86.9312831%" id="linearGradient-16">
            <stop stop-color="#3C64CF" offset="0%"></stop>
            <stop stop-color="#4494DC" offset="25.6009615%"></stop>
            <stop stop-color="#B358DE" offset="68.6024913%"></stop>
            <stop stop-color="#802DDF" offset="100%"></stop>
        </linearGradient>
        <linearGradient x1="25.1174856%" y1="2.18479293%" x2="40.7571914%" y2="86.9312831%" id="linearGradient-17">
            <stop stop-color="#3C64CF" offset="0%"></stop>
            <stop stop-color="#4494DC" offset="25.6009615%"></stop>
            <stop stop-color="#B358DE" offset="68.6024913%"></stop>
            <stop stop-color="#802DDF" offset="100%"></stop>
        </linearGradient>
        <linearGradient x1="24.9099683%" y1="2.18479293%" x2="40.6801074%" y2="86.9312831%" id="linearGradient-18">
            <stop stop-color="#3C64CF" offset="0%"></stop>
            <stop stop-color="#4494DC" offset="25.6009615%"></stop>
            <stop stop-color="#B358DE" offset="68.6024913%"></stop>
            <stop stop-color="#802DDF" offset="100%"></stop>
        </linearGradient>
        <linearGradient x1="24.4677773%" y1="2.18479293%" x2="40.515852%" y2="86.9312831%" id="linearGradient-19">
            <stop stop-color="#3C64CF" offset="0%"></stop>
            <stop stop-color="#4494DC" offset="25.6009615%"></stop>
            <stop stop-color="#B358DE" offset="68.6024913%"></stop>
            <stop stop-color="#802DDF" offset="100%"></stop>
        </linearGradient>
        <linearGradient x1="23.8548038%" y1="2.18479293%" x2="40.2881581%" y2="86.9312831%" id="linearGradient-20">
            <stop stop-color="#3C64CF" offset="0%"></stop>
            <stop stop-color="#4494DC" offset="25.6009615%"></stop>
            <stop stop-color="#B358DE" offset="68.6024913%"></stop>
            <stop stop-color="#802DDF" offset="100%"></stop>
        </linearGradient>
        <linearGradient x1="23.0221929%" y1="2.18479293%" x2="39.9788781%" y2="86.9312831%" id="linearGradient-21">
            <stop stop-color="#3C64CF" offset="0%"></stop>
            <stop stop-color="#4494DC" offset="25.6009615%"></stop>
            <stop stop-color="#B358DE" offset="68.6024913%"></stop>
            <stop stop-color="#802DDF" offset="100%"></stop>
        </linearGradient>
    </defs>
    <g id="Artboard" stroke="none" stroke-width="1" fill="none" fill-rule="evenodd">
        <g id="Group" transform="translate(-322.842812, -898.170324) rotate(-195.000000) translate(322.842812, 898.170324) translate(-891.842812, -2766.170324)">
            <path d="M1136.36352,273.570301 C1099.26452,438.896301 1045.76652,595.042301 856.506518,642.381301 C638.660518,696.919301 601.740518,899.594301 433.180518,887.894301 C365.972518,883.214301 288.278918,848.115301 259.065508,786.287301 C219.905218,703.579301 383.177518,551.303301 383.177518,410.727301 C383.177518,266.100301 252.703088,148.743301 326.363918,64.145801 C366.151518,18.427001 431.209518,5.91730097 522.165518,0.967400968 C808.116518,-14.422169 1162.53052,157.203301 1136.36352,273.570301 Z" id="Path" stroke="url(#linearGradient-1)" stroke-width="4.17255"></path>
            <path d="M1120.05152,272.040301 C1119.60352,274.020301 1119.15552,276.000301 1118.70752,278.070301 C1084.20752,439.076301 1041.82052,593.242301 855.339518,640.400301 C644.841518,693.409301 606.308518,887.894301 442.497518,877.094301 C386.401518,873.404301 322.776818,848.295301 287.469818,803.746301 C281.645018,796.366301 276.626718,788.537301 272.415018,779.987301 C233.165118,700.249301 387.655518,551.033301 388.282518,412.706301 C388.730518,271.950301 265.694118,157.023301 338.190018,74.315401 C377.081518,29.856601 440.078518,17.256901 527.897518,12.127001 C805.962518,-4.97254903 1147.02552,163.683301 1120.05152,272.040301 Z" id="Path" stroke="url(#linearGradient-2)" stroke-width="4.02348"></path>
            <path d="M1102.31152,276.540301 C1101.86352,278.520301 1101.41552,280.500301 1101.05752,282.480301 C1069.24552,439.255301 1037.97052,591.352301 854.176518,638.510301 C650.937518,689.899301 610.702518,876.194301 451.641518,866.294301 C396.978518,862.965301 335.235718,839.205301 300.556018,796.456301 C294.910518,789.436301 289.892218,781.877301 285.680518,773.687301 C246.251338,697.009301 391.959518,550.673301 393.214518,414.686301 C394.110518,277.800301 278.511518,165.393301 349.842418,84.485001 C387.837518,41.286101 448.863518,28.866401 533.546518,23.196501 C803.725518,5.28700097 1127.76152,170.702301 1102.31152,276.540301 Z" id="Path" stroke="url(#linearGradient-3)" stroke-width="3.87452"></path>
            <path d="M1084.48052,281.130301 C1084.03252,283.110301 1083.67352,285.090301 1083.22552,287.070301 C1054.01252,439.436301 1033.84952,590.092301 852.744518,636.621301 C657.211518,686.840301 615.183518,864.495301 460.782518,855.585301 C407.643518,852.525301 347.603318,830.116301 313.640418,789.257301 C308.084518,782.597301 303.155918,775.397301 298.944118,767.478301 C259.246148,693.860301 396.531518,550.493301 398.144518,416.757301 C399.757518,283.740301 291.327118,173.763301 361.403518,94.745301 C398.502518,52.806501 457.556518,40.386801 539.013518,34.447001 C801.576518,15.097501 1108.67552,177.813301 1084.48052,281.130301 Z" id="Path" stroke="url(#linearGradient-4)" stroke-width="3.72546"></path>
            <path d="M1066.64652,285.630301 C1066.19852,287.610301 1065.83952,289.590301 1065.48152,291.570301 C1038.77752,439.616301 1029.90552,588.472301 851.488518,634.731301 C663.304518,683.510301 619.573518,852.885301 469.922518,844.786301 C418.305518,842.086301 360.058518,820.936301 326.633218,781.967301 C321.256518,775.667301 316.327818,768.828301 312.116118,761.178301 C272.328518,690.620301 400.921518,550.223301 403.071518,418.827301 C405.133518,289.680301 304.140618,182.133301 373.052518,105.095301 C409.255518,64.416201 466.337518,52.086501 544.568518,45.696701 C799.334518,24.997201 1089.49752,184.923301 1066.64652,285.630301 Z" id="Path" stroke="url(#linearGradient-5)" stroke-width="3.5765"></path>
            <path d="M1048.90152,290.220301 C1048.45352,292.110301 1048.18552,294.090301 1047.82652,296.069301 C1023.63152,439.796301 1026.05052,586.852301 850.322518,632.841301 C669.486518,680.090301 624.142518,841.185301 479.150518,834.076301 C429.057518,831.646301 372.602518,811.846301 339.804718,774.677301 C334.517618,768.737301 329.678518,762.167301 325.377218,754.878301 C285.410418,687.289301 405.310518,549.863301 407.999518,420.716301 C410.597518,295.349301 316.953718,190.412301 384.610518,115.174301 C419.827518,75.755501 474.939518,63.425801 550.123518,56.766001 C797.182518,34.806501 1070.40852,192.032301 1048.90152,290.220301 Z" id="Path" stroke="url(#linearGradient-6)" stroke-width="3.42744"></path>
            <path d="M1031.16052,294.719301 C1030.71152,296.609301 1030.44352,298.589301 1030.17452,300.569301 C1008.39852,439.886301 1022.10952,585.232301 849.158518,630.861301 C675.760518,676.670301 628.713518,829.486301 488.382518,823.186301 C439.812518,821.116301 385.149518,802.666301 352.978518,767.387301 C347.870918,761.807301 343.121518,755.598301 338.730518,748.578301 C298.674118,684.049301 409.792518,549.503301 413.018518,422.786301 C416.155518,301.289301 329.859018,198.782301 396.350518,125.434301 C430.672518,87.275301 483.811518,74.945501 555.770518,67.925601 C794.943518,44.616201 1051.32252,199.232301 1031.16052,294.719301 Z" id="Path" stroke="url(#linearGradient-7)" stroke-width="3.27848"></path>
            <path d="M1013.32752,299.309301 C1012.96952,301.199301 1012.70052,303.179301 1012.43152,305.069301 C993.075518,439.976301 1018.07752,583.612301 847.815518,628.971301 C681.854518,673.250301 633.195518,817.786301 497.523518,812.476301 C450.476518,810.766301 397.606518,793.577301 365.973518,760.187301 C361.044518,754.968301 356.295518,749.118301 351.904518,742.368301 C311.758118,680.899301 414.094518,549.413301 417.947518,424.856301 C421.532518,307.229301 342.763718,207.332301 408.001518,135.784301 C441.515518,98.975301 492.594518,86.555301 561.326518,79.175401 C792.793518,54.426001 1032.23552,206.342301 1013.32752,299.309301 Z" id="Path" stroke="url(#linearGradient-8)" stroke-width="3.12941"></path>
            <path d="M995.493518,303.810301 C995.135518,305.700301 994.866518,307.680301 994.687518,309.569301 C977.660518,440.066301 1014.13252,581.902301 846.648518,627.081301 C688.035518,669.830301 637.674518,806.087301 506.751518,801.677301 C461.139518,800.237301 410.239518,784.397301 379.144518,752.898301 C374.305518,748.038301 369.645518,742.458301 365.254518,736.068301 C324.929318,677.570301 418.573518,549.053301 422.964518,426.836301 C426.996518,313.079301 355.755518,215.612301 419.648518,145.954301 C452.267518,110.405301 501.374518,97.985301 566.970518,90.335301 C790.641518,64.146101 1013.14752,213.452301 995.493518,303.810301 Z" id="Path" stroke="url(#linearGradient-9)" stroke-width="2.98035"></path>
            <path d="M977.751518,308.309301 C977.392518,310.199301 977.213518,312.089301 976.944518,314.069301 C962.248518,440.156301 1010.19052,580.192301 845.394518,625.191301 C694.130518,666.410301 642.155518,794.477301 515.892518,790.967301 C471.803518,789.887301 422.696518,775.307301 392.228518,745.698301 C387.568518,741.198301 382.998518,735.978301 378.517518,729.858301 C338.013518,674.330301 422.965518,548.783301 427.894518,428.906301 C432.464518,318.929301 368.571518,224.072301 431.299518,156.213301 C463.021518,122.014301 510.067518,109.504301 572.527518,101.495301 C788.401518,73.865701 994.150518,220.562301 977.751518,308.309301 Z" id="Path" stroke="url(#linearGradient-10)" stroke-width="2.83139"></path>
            <path d="M960.006518,312.899301 C959.647518,314.789301 959.558518,316.679301 959.289518,318.569301 C946.833518,440.246301 1006.24552,578.482301 844.138518,623.211301 C700.222518,662.900301 646.634518,782.777301 525.031518,780.167301 C482.465518,779.357301 435.240518,766.217301 405.220518,738.408301 C400.739518,734.268301 396.169518,729.408301 391.689518,723.558301 C351.094518,671.090301 427.264518,548.513301 432.731518,430.886301 C437.749518,324.779301 381.294518,232.351301 442.857518,166.473301 C473.594518,133.534301 518.758518,121.024301 577.991518,112.744301 C786.249518,83.585301 975.150518,227.761301 960.006518,312.899301 Z" id="Path" stroke="url(#linearGradient-11)" stroke-width="2.68232"></path>
            <path d="M942.174518,317.399301 C941.816518,319.289301 941.726518,321.179301 941.547518,323.069301 C931.242518,440.246301 1002.30452,576.862301 842.885518,621.321301 C706.406518,659.390301 651.115518,771.077301 534.262518,769.367301 C493.220518,768.917301 447.787518,757.038301 418.394518,731.118301 C414.003518,727.248301 409.522518,722.748301 405.042518,717.259301 C364.358518,667.760301 431.656518,548.153301 437.750518,432.866301 C443.216518,330.629301 394.199518,240.721301 454.507518,176.643301 C484.348518,144.963301 527.541518,132.364301 583.638518,123.814301 C784.099518,93.215301 956.154518,234.871301 942.174518,317.399301 Z" id="Path" stroke="url(#linearGradient-12)" stroke-width="2.53336"></path>
            <path d="M924.341518,321.989301 C924.072518,323.879301 923.983518,325.769301 923.803518,327.569301 C915.649518,440.336301 998.271518,575.153301 841.630518,619.431301 C712.499518,655.970301 655.596518,759.378301 543.402518,758.662042 C503.883518,758.478301 460.332518,747.948301 431.477518,723.919301 C427.265518,720.409301 422.784518,716.269301 418.304518,711.049301 C377.531518,664.520301 436.047518,547.973301 442.768518,434.936301 C448.593518,336.569301 407.102518,249.091301 466.246518,186.903301 C495.191518,156.483301 536.412518,143.884301 589.283518,134.974301 C781.948518,102.845301 937.156518,241.981301 924.341518,321.989301 Z" id="Path" stroke="url(#linearGradient-13)" stroke-width="2.3843"></path>
            <path d="M906.598518,326.489301 C906.329518,328.378301 906.239518,330.178301 906.149518,332.068301 C900.056518,440.426301 994.327518,573.442301 840.375518,617.541301 C718.592518,652.460301 660.076518,747.678301 552.542518,747.858301 C514.546518,748.038301 472.877518,738.678301 444.470518,716.628301 C440.438518,713.479301 436.047518,709.699301 431.387518,704.749301 C390.524518,661.280301 440.169518,547.703301 447.517518,436.916301 C453.790518,342.418301 419.737518,257.370301 477.626518,197.162301 C505.675518,168.003301 544.925518,155.313301 594.570518,146.223301 C779.797518,112.384301 918.247518,249.181301 906.598518,326.489301 Z" id="Path" stroke="url(#linearGradient-14)" stroke-width="2.23534"></path>
            <path d="M888.766518,331.079301 C888.497518,332.879301 888.497518,334.769301 888.408518,336.659301 C884.375518,440.516301 990.296518,571.732301 839.121518,615.651301 C724.687518,648.950301 664.558518,736.068301 561.773518,737.058301 C525.301518,737.598301 485.513518,729.498301 457.644518,709.339301 C453.791518,706.549301 449.400518,703.039301 444.740518,698.449301 C403.788518,657.950301 444.561518,547.343301 452.536518,438.896301 C459.257518,348.178301 432.643518,265.740301 489.367518,207.332301 C516.519518,179.433301 553.708518,166.653301 600.216518,157.293301 C777.558518,121.924301 899.251518,256.291301 888.766518,331.079301 Z" id="Path" stroke="url(#linearGradient-15)" stroke-width="2.08627"></path>
            <path d="M871.023518,335.669301 C870.754518,337.469301 870.754518,339.359301 870.754518,341.159301 C868.603518,440.516301 986.443518,569.933301 838.046518,613.762301 C730.870518,645.351301 669.038518,724.369301 571.003518,726.349301 C535.965518,727.159301 498.238518,720.409301 470.727518,702.139301 C466.964518,699.709301 462.752518,696.559301 458.003518,692.239301 C417.050518,654.710301 448.862518,547.163301 457.554518,440.966301 C464.634518,354.118301 445.547518,274.110301 501.106518,217.592301 C527.272518,190.952301 562.579518,177.993301 605.951518,168.543301 C775.407518,131.284301 880.342518,263.581301 871.023518,335.669301 Z" id="Path" stroke="url(#linearGradient-16)" stroke-width="1.93721"></path>
            <path d="M853.279518,340.258301 C853.100518,342.058301 853.010518,343.948301 853.010518,345.748301 C852.742518,440.695301 982.320518,568.222301 836.701518,611.961301 C736.963518,641.750301 673.518518,712.668301 580.143518,715.548301 C546.628518,716.718301 510.873518,711.138301 483.810518,694.849301 C480.226518,692.689301 476.014518,689.989301 471.265518,685.939301 C430.222518,651.380301 453.163518,546.803301 462.483518,443.035301 C469.920518,360.057301 458.361518,282.479301 512.665518,227.851301 C538.025518,202.561301 571.361518,189.512301 611.507518,179.792301 C773.166518,140.643301 861.524518,270.690301 853.279518,340.258301 Z" id="Path" stroke="url(#linearGradient-17)" stroke-width="1.78825"></path>
            <path d="M835.356518,344.758301 C835.177518,346.558301 835.177518,348.358301 835.177518,350.158301 C836.790518,440.605301 978.287518,566.242301 835.356518,609.891301 C743.056518,638.150301 677.998518,700.969301 589.372518,704.748301 C557.381518,706.188301 523.597518,701.779301 496.982518,687.559301 C493.577518,685.759301 489.365518,683.329301 484.616518,679.639301 C443.574518,647.960301 457.464518,546.533301 467.500518,445.015301 C475.296518,365.907301 471.264518,290.759301 524.404518,238.111301 C548.778518,213.991301 580.052518,200.762301 617.062518,190.862301 C770.925518,149.913301 842.525518,277.890301 835.356518,344.758301 Z" id="Path" stroke="url(#linearGradient-18)" stroke-width="1.63919"></path>
            <path d="M817.615518,349.348301 C817.436518,351.148301 817.436518,352.948301 817.526518,354.748301 C820.841518,440.786301 974.256518,564.442301 834.104518,608.091301 C749.062518,634.551301 682.391518,689.359301 598.425518,694.039301 C567.957518,695.839301 536.145518,692.509301 509.889518,680.449301 C506.663518,678.919301 502.541518,676.939301 497.702518,673.520301 C456.659518,644.810301 461.498518,546.353301 472.252518,447.175301 C480.406518,371.847301 483.812518,299.219301 535.876518,248.461301 C559.265518,225.601301 588.657518,212.191301 622.531518,202.202301 C768.687518,159.003301 823.798518,285.090301 817.615518,349.348301 Z" id="Path" stroke="url(#linearGradient-19)" stroke-width="1.49023"></path>
            <path d="M799.872518,353.848301 C799.692518,355.648301 799.782518,357.448301 799.872518,359.248301 C804.890518,440.876301 970.313518,562.463301 833.028518,606.202301 C755.335518,630.951301 687.050518,677.750301 607.744518,683.330301 C578.800518,685.399301 548.959518,683.240301 523.151518,673.250301 C520.104518,672.080301 515.982518,670.370301 511.143518,667.310301 C470.011518,641.481301 465.889518,546.083301 477.449518,449.246301 C485.962518,377.787301 496.805518,307.499301 547.704518,258.721301 C570.197518,237.031301 597.528518,223.441301 628.265518,213.362301 C766.267518,167.913301 804.979518,292.200301 799.872518,353.848301 Z" id="Path" stroke="url(#linearGradient-20)" stroke-width="1.34116"></path>
            <path d="M782.039518,358.348301 C781.949518,360.148301 781.949518,361.948301 782.128518,363.657301 C788.759518,440.875301 966.191518,560.302301 831.683518,604.131301 C761.249518,627.081301 691.441518,665.870301 616.795518,672.439301 C589.373518,674.869301 561.594518,673.609301 536.144518,665.870301 C533.276518,664.970301 529.154518,663.710301 524.315518,660.920301 C483.184518,637.970301 470.011518,545.723301 482.287518,451.135301 C491.069518,383.547301 509.529518,315.689301 559.264518,268.890301 C580.771518,248.550301 606.131518,234.691301 633.731518,224.521301 C763.847518,176.552301 786.071518,299.399301 782.039518,358.348301 Z" id="Path" stroke="url(#linearGradient-21)" stroke-width="1.1922"></path>
        </g>
    </g>
</svg>